# xmcd
#
# Track frame offsets:
#       150
#       22820
#       35503
#       52179
#       63018
#       80341
#       96348
#       108998
#       120915
#       133965
#       145430
#       167028
#       185583
#       202607
#
# Disc length: 2948 seconds
#
# Revision: 0
# Processed by: cddbd v1.5.2PL0 Copyright (c) Steve Scherf et al.
# Submitted via: CD-DA_X-Tractor v0.24
#
DISCID=ba0b820e
DTITLE=Divers - Party des fêtes de chez nous !
DYEAR=2015
DGENRE=
TTITLE0=Medley juste pour le fun !
TTITLE1=La cuisinière
TTITLE2=Vlons la gang
TTITLE3=Le réel du sucre d'étable
TTITLE4=Medley du p'tit oiseau
TTITLE5=Smile a while
TTITLE6=Beer barrel polka
TTITLE7=La petite jument
TTITLE8=La grosse Hortense
TTITLE9=La galope de la malbaie
TTITLE10=Medley party !
TTITLE11=Le réel de Sherbrooke
TTITLE12=Dueling banjos
TTITLE13=Dans nos vieilles maisons
EXTD=
EXTT0=
EXTT1=
EXTT2=
EXTT3=
EXTT4=
EXTT5=
EXTT6=
EXTT7=
EXTT8=
EXTT9=
EXTT10=
EXTT11=
EXTT12=
EXTT13=
PLAYORDER=
